<?xml version="1.0" encoding="UTF-8"?><svg xmlns="http://www.w3.org/2000/svg" xmlns:xlink="http://www.w3.org/1999/xlink" width="48pt" zoomAndPan="magnify" viewBox="0 0 48 48" height="48pt" preserveAspectRatio="xMidYMid meet" version="1.2"><defs><clipPath xml:id="clip1" id="clip1"><path d="M 24 1.1875 L 39.261719 1.1875 L 39.261719 19 L 24 19 Z M 24 1.1875 "/></clipPath><clipPath xml:id="clip2" id="clip2"><path d="M 8.410156 1.1875 L 39.261719 1.1875 L 39.261719 45.832031 L 8.410156 45.832031 Z M 8.410156 1.1875 "/></clipPath></defs><g xml:id="surface1" id="surface1"><g clip-rule="nonzero" clip-path="url(#clip1)"><path style=" stroke:none;fill-rule:nonzero;fill:rgb(46.669006%,67.449951%,94.509888%);fill-opacity:1;" d="M 25.976562 18.09375 L 25.976562 14.152344 C 25.976562 13.644531 25.472656 13.214844 24.746094 13.011719 L 24.746094 1.199219 C 32.839844 1.632812 39.257812 7.800781 39.257812 15.351562 L 39.257812 18.09375 Z M 25.976562 18.09375 "/></g><g clip-rule="nonzero" clip-path="url(#clip2)"><path style=" stroke:none;fill-rule:nonzero;fill:rgb(46.669006%,67.449951%,94.509888%);fill-opacity:1;" d="M 23.191406 1.1875 L 23.191406 12.957031 C 22.328125 13.117188 21.699219 13.589844 21.699219 14.152344 L 21.699219 18.09375 L 8.519531 18.09375 L 8.519531 19.636719 L 21.699219 19.636719 L 21.699219 22.683594 C 21.699219 23.378906 22.65625 23.945312 23.839844 23.945312 C 25.019531 23.945312 25.976562 23.378906 25.976562 22.683594 L 25.976562 19.636719 L 39.257812 19.636719 L 39.257812 31.824219 C 39.257812 39.65625 32.355469 46.003906 23.839844 46.003906 C 15.320312 46.003906 8.417969 39.65625 8.417969 31.824219 L 8.417969 15.351562 C 8.417969 7.71875 14.976562 1.5 23.191406 1.1875 Z M 23.191406 1.1875 "/></g><path style=" stroke:none;fill-rule:nonzero;fill:rgb(46.669006%,67.449951%,94.509888%);fill-opacity:1;" d="M 24.960938 14.9375 C 24.960938 14.371094 24.457031 13.910156 23.839844 13.910156 C 23.21875 13.910156 22.714844 14.371094 22.714844 14.9375 L 22.714844 21.894531 C 22.714844 22.464844 23.21875 22.921875 23.839844 22.921875 C 24.457031 22.921875 24.960938 22.464844 24.960938 21.894531 Z M 24.960938 14.9375 "/></g></svg>