<?xml version="1.0" encoding="UTF-8"?><svg xmlns="http://www.w3.org/2000/svg" xmlns:xlink="http://www.w3.org/1999/xlink" width="81pt" zoomAndPan="magnify" viewBox="0 0 81 30.000001" height="30.000001pt" preserveAspectRatio="xMidYMid meet" version="1.2"><defs><g/><clipPath xml:id="clip1" id="clip1"><path d="M 10 5.558594 L 16.785156 5.558594 L 16.785156 13 L 10 13 Z M 10 5.558594 "/></clipPath><clipPath xml:id="clip2" id="clip2"><path d="M 4.449219 5.558594 L 16.785156 5.558594 L 16.785156 23.46875 L 4.449219 23.46875 Z M 4.449219 5.558594 "/></clipPath></defs><g xml:id="surface1" id="surface1"><g clip-rule="nonzero" clip-path="url(#clip1)"><path style=" stroke:none;fill-rule:nonzero;fill:rgb(100%,100%,100%);fill-opacity:1;" d="M 11.472656 12.167969 L 11.472656 10.570312 C 11.472656 10.367188 11.273438 10.191406 10.980469 10.109375 L 10.980469 5.328125 C 14.21875 5.5 16.785156 8 16.785156 11.058594 L 16.785156 12.167969 Z M 11.472656 12.167969 "/></g><g clip-rule="nonzero" clip-path="url(#clip2)"><path style=" stroke:none;fill-rule:nonzero;fill:rgb(100%,100%,100%);fill-opacity:1;" d="M 10.359375 5.320312 L 10.359375 10.085938 C 10.015625 10.152344 9.765625 10.34375 9.765625 10.570312 L 9.765625 12.167969 L 4.492188 12.167969 L 4.492188 12.792969 L 9.765625 12.792969 L 9.765625 14.023438 C 9.765625 14.308594 10.144531 14.535156 10.617188 14.535156 C 11.09375 14.535156 11.472656 14.308594 11.472656 14.023438 L 11.472656 12.792969 L 16.785156 12.792969 L 16.785156 17.726562 C 16.785156 20.898438 14.023438 23.46875 10.621094 23.46875 C 7.214844 23.46875 4.453125 20.898438 4.453125 17.726562 L 4.453125 11.058594 C 4.453125 7.964844 7.074219 5.449219 10.359375 5.320312 Z M 10.359375 5.320312 "/></g><path style=" stroke:none;fill-rule:nonzero;fill:rgb(100%,100%,100%);fill-opacity:1;" d="M 11.066406 10.890625 C 11.066406 10.660156 10.867188 10.472656 10.617188 10.472656 C 10.371094 10.472656 10.171875 10.660156 10.171875 10.890625 L 10.171875 13.707031 C 10.171875 13.9375 10.371094 14.121094 10.617188 14.121094 C 10.867188 14.121094 11.066406 13.9375 11.066406 13.707031 Z M 11.066406 10.890625 "/><g style="fill:rgb(100%,100%,100%);fill-opacity:1;"><g transform="translate(19.973887, 18.919356)"><path style="stroke:none;" d="M 2.046875 0 L 0.3125 0 L 1.40625 -7.78125 L 3.140625 -7.78125 Z M 2.046875 0 "/></g></g><g style="fill:rgb(100%,100%,100%);fill-opacity:1;"><g transform="translate(23.265511, 18.919356)"><path style="stroke:none;" d="M 6.953125 -6.390625 L 4.640625 -6.390625 L 3.75 0 L 2.015625 0 L 2.921875 -6.390625 L 0.609375 -6.390625 L 0.796875 -7.78125 L 7.15625 -7.78125 Z M 6.953125 -6.390625 "/></g></g><g style="fill:rgb(100%,100%,100%);fill-opacity:1;"><g transform="translate(29.961485, 18.919356)"><path style="stroke:none;" d="M 5.1875 -4.5 L 6.84375 -4.5 L 6.203125 0 L 4.953125 0 L 4.90625 -0.953125 C 4.226562 -0.222656 3.445312 0.140625 2.5625 0.140625 C 1.757812 0.140625 1.191406 -0.179688 0.859375 -0.828125 C 0.523438 -1.484375 0.445312 -2.523438 0.625 -3.953125 C 0.726562 -4.765625 0.882812 -5.429688 1.09375 -5.953125 C 1.300781 -6.484375 1.570312 -6.890625 1.90625 -7.171875 C 2.25 -7.460938 2.628906 -7.660156 3.046875 -7.765625 C 3.460938 -7.878906 3.976562 -7.9375 4.59375 -7.9375 C 5.519531 -7.9375 6.3125 -7.84375 6.96875 -7.65625 L 6.75 -6.390625 C 5.90625 -6.429688 5.191406 -6.453125 4.609375 -6.453125 C 3.878906 -6.453125 3.363281 -6.28125 3.0625 -5.9375 C 2.769531 -5.59375 2.554688 -4.890625 2.421875 -3.828125 C 2.296875 -2.867188 2.289062 -2.210938 2.40625 -1.859375 C 2.53125 -1.515625 2.816406 -1.34375 3.265625 -1.34375 C 3.585938 -1.34375 3.859375 -1.40625 4.078125 -1.53125 C 4.304688 -1.65625 4.566406 -1.851562 4.859375 -2.125 Z M 5.1875 -4.5 "/></g></g><g style="fill:rgb(100%,100%,100%);fill-opacity:1;"><g transform="translate(37.209821, 18.919356)"><path style="stroke:none;" d="M 3.546875 -5.71875 C 4.578125 -5.71875 5.296875 -5.484375 5.703125 -5.015625 C 6.109375 -4.554688 6.238281 -3.785156 6.09375 -2.703125 C 5.945312 -1.660156 5.632812 -0.925781 5.15625 -0.5 C 4.675781 -0.0703125 3.9375 0.140625 2.9375 0.140625 C 1.914062 0.140625 1.191406 -0.0859375 0.765625 -0.546875 C 0.347656 -1.015625 0.21875 -1.78125 0.375 -2.84375 C 0.519531 -3.894531 0.828125 -4.632812 1.296875 -5.0625 C 1.773438 -5.5 2.523438 -5.71875 3.546875 -5.71875 Z M 3.546875 -4.46875 C 3.085938 -4.46875 2.753906 -4.347656 2.546875 -4.109375 C 2.347656 -3.878906 2.203125 -3.410156 2.109375 -2.703125 C 2.015625 -2.054688 2.023438 -1.628906 2.140625 -1.421875 C 2.253906 -1.210938 2.53125 -1.109375 2.96875 -1.109375 C 3.414062 -1.109375 3.738281 -1.222656 3.9375 -1.453125 C 4.132812 -1.691406 4.28125 -2.15625 4.375 -2.84375 C 4.476562 -3.488281 4.46875 -3.921875 4.34375 -4.140625 C 4.226562 -4.359375 3.960938 -4.46875 3.546875 -4.46875 Z M 3.546875 -4.46875 "/></g></g><g style="fill:rgb(100%,100%,100%);fill-opacity:1;"><g transform="translate(43.815615, 18.919356)"><path style="stroke:none;" d=""/></g></g><g style="fill:rgb(100%,100%,100%);fill-opacity:1;"><g transform="translate(46.261787, 18.919356)"><path style="stroke:none;" d="M 3.640625 -2.953125 L 2.171875 -3.546875 C 1.597656 -3.785156 1.210938 -4.085938 1.015625 -4.453125 C 0.828125 -4.828125 0.765625 -5.289062 0.828125 -5.84375 C 0.941406 -6.664062 1.226562 -7.21875 1.6875 -7.5 C 2.15625 -7.789062 2.878906 -7.9375 3.859375 -7.9375 C 4.828125 -7.9375 5.671875 -7.828125 6.390625 -7.609375 L 6.234375 -6.453125 C 5.554688 -6.472656 4.75 -6.484375 3.8125 -6.484375 C 3.351562 -6.492188 3.039062 -6.457031 2.875 -6.375 C 2.707031 -6.300781 2.597656 -6.085938 2.546875 -5.734375 C 2.515625 -5.484375 2.535156 -5.304688 2.609375 -5.203125 C 2.691406 -5.097656 2.878906 -4.992188 3.171875 -4.890625 L 4.5625 -4.34375 C 5.15625 -4.113281 5.546875 -3.820312 5.734375 -3.46875 C 5.929688 -3.113281 5.988281 -2.632812 5.90625 -2.03125 C 5.789062 -1.175781 5.515625 -0.597656 5.078125 -0.296875 C 4.640625 -0.00390625 3.894531 0.140625 2.84375 0.140625 C 1.96875 0.140625 1.078125 0.0390625 0.171875 -0.15625 L 0.34375 -1.390625 C 1.9375 -1.347656 2.75 -1.328125 2.78125 -1.328125 C 3.300781 -1.328125 3.65625 -1.378906 3.84375 -1.484375 C 4.03125 -1.585938 4.148438 -1.800781 4.203125 -2.125 C 4.234375 -2.382812 4.210938 -2.5625 4.140625 -2.65625 C 4.066406 -2.757812 3.898438 -2.859375 3.640625 -2.953125 Z M 3.640625 -2.953125 "/></g></g><g style="fill:rgb(100%,100%,100%);fill-opacity:1;"><g transform="translate(52.777399, 18.919356)"><path style="stroke:none;" d="M 2.984375 -7.890625 L 2.71875 -5.9375 C 2.65625 -5.46875 2.554688 -5.007812 2.421875 -4.5625 C 3.285156 -5.332031 4.078125 -5.71875 4.796875 -5.71875 C 5.304688 -5.71875 5.6875 -5.578125 5.9375 -5.296875 C 6.1875 -5.023438 6.273438 -4.640625 6.203125 -4.140625 L 5.625 0 L 3.953125 0 L 4.484375 -3.6875 C 4.515625 -3.9375 4.503906 -4.101562 4.453125 -4.1875 C 4.398438 -4.269531 4.289062 -4.3125 4.125 -4.3125 C 3.875 -4.3125 3.613281 -4.238281 3.34375 -4.09375 C 3.082031 -3.957031 2.75 -3.734375 2.34375 -3.421875 L 1.890625 0 L 0.21875 0 L 1.3125 -7.890625 Z M 2.984375 -7.890625 "/></g></g><g style="fill:rgb(100%,100%,100%);fill-opacity:1;"><g transform="translate(59.495918, 18.919356)"><path style="stroke:none;" d="M 3.546875 -5.71875 C 4.578125 -5.71875 5.296875 -5.484375 5.703125 -5.015625 C 6.109375 -4.554688 6.238281 -3.785156 6.09375 -2.703125 C 5.945312 -1.660156 5.632812 -0.925781 5.15625 -0.5 C 4.675781 -0.0703125 3.9375 0.140625 2.9375 0.140625 C 1.914062 0.140625 1.191406 -0.0859375 0.765625 -0.546875 C 0.347656 -1.015625 0.21875 -1.78125 0.375 -2.84375 C 0.519531 -3.894531 0.828125 -4.632812 1.296875 -5.0625 C 1.773438 -5.5 2.523438 -5.71875 3.546875 -5.71875 Z M 3.546875 -4.46875 C 3.085938 -4.46875 2.753906 -4.347656 2.546875 -4.109375 C 2.347656 -3.878906 2.203125 -3.410156 2.109375 -2.703125 C 2.015625 -2.054688 2.023438 -1.628906 2.140625 -1.421875 C 2.253906 -1.210938 2.53125 -1.109375 2.96875 -1.109375 C 3.414062 -1.109375 3.738281 -1.222656 3.9375 -1.453125 C 4.132812 -1.691406 4.28125 -2.15625 4.375 -2.84375 C 4.476562 -3.488281 4.46875 -3.921875 4.34375 -4.140625 C 4.226562 -4.359375 3.960938 -4.46875 3.546875 -4.46875 Z M 3.546875 -4.46875 "/></g></g><g style="fill:rgb(100%,100%,100%);fill-opacity:1;"><g transform="translate(66.101713, 18.919356)"><path style="stroke:none;" d="M 2.3125 -5.5625 L 2.296875 -4.484375 C 2.617188 -4.828125 2.988281 -5.113281 3.40625 -5.34375 C 3.820312 -5.582031 4.226562 -5.703125 4.625 -5.703125 C 5.28125 -5.703125 5.726562 -5.472656 5.96875 -5.015625 C 6.21875 -4.554688 6.269531 -3.773438 6.125 -2.671875 C 6.0625 -2.191406 5.96875 -1.78125 5.84375 -1.4375 C 5.726562 -1.09375 5.59375 -0.816406 5.4375 -0.609375 C 5.289062 -0.410156 5.109375 -0.253906 4.890625 -0.140625 C 4.679688 -0.0234375 4.46875 0.046875 4.25 0.078125 C 4.039062 0.117188 3.789062 0.140625 3.5 0.140625 C 2.945312 0.140625 2.394531 0.09375 1.84375 0 C 1.84375 0.351562 1.816406 0.703125 1.765625 1.046875 L 1.578125 2.140625 L -0.09375 2.140625 L 1 -5.5625 Z M 2.046875 -1.015625 L 2.90625 -1.015625 C 3.46875 -1.015625 3.835938 -1.109375 4.015625 -1.296875 C 4.191406 -1.492188 4.332031 -1.960938 4.4375 -2.703125 C 4.519531 -3.398438 4.535156 -3.847656 4.484375 -4.046875 C 4.429688 -4.253906 4.273438 -4.359375 4.015625 -4.359375 C 3.816406 -4.359375 3.566406 -4.273438 3.265625 -4.109375 C 2.972656 -3.941406 2.675781 -3.71875 2.375 -3.4375 Z M 2.046875 -1.015625 "/></g></g></g></svg>