<?xml version="1.0" encoding="UTF-8"?><svg xmlns="http://www.w3.org/2000/svg" xmlns:xlink="http://www.w3.org/1999/xlink" width="81pt" zoomAndPan="magnify" viewBox="0 0 81 30.000001" height="30.000001pt" preserveAspectRatio="xMidYMid meet" version="1.2"><defs><g/><clipPath xml:id="clip1" id="clip1"><path d="M 10 16 L 16.539062 16 L 16.539062 24.210938 L 10 24.210938 Z M 10 16 "/></clipPath><clipPath xml:id="clip2" id="clip2"><path d="M 2.75 4.617188 L 16.539062 4.617188 L 16.539062 24.210938 L 2.75 24.210938 Z M 2.75 4.617188 "/></clipPath></defs><g xml:id="surface1" id="surface1"><g clip-rule="nonzero" clip-path="url(#clip1)"><path style=" stroke:none;fill-rule:nonzero;fill:rgb(100%,100%,100%);fill-opacity:1;" d="M 10.601562 16.820312 L 10.601562 18.542969 C 10.601562 18.765625 10.375 18.953125 10.050781 19.042969 L 10.050781 24.207031 C 13.667969 24.019531 16.535156 21.320312 16.535156 18.019531 L 16.535156 16.820312 Z M 10.601562 16.820312 "/></g><g clip-rule="nonzero" clip-path="url(#clip2)"><path style=" stroke:none;fill-rule:nonzero;fill:rgb(100%,100%,100%);fill-opacity:1;" d="M 9.355469 24.210938 L 9.355469 19.066406 C 8.96875 18.996094 8.6875 18.789062 8.6875 18.542969 L 8.6875 16.820312 L 2.796875 16.820312 L 2.796875 16.144531 L 8.6875 16.144531 L 8.6875 14.8125 C 8.6875 14.507812 9.117188 14.261719 9.644531 14.261719 C 10.171875 14.261719 10.601562 14.507812 10.601562 14.8125 L 10.601562 16.144531 L 16.535156 16.144531 L 16.535156 10.816406 C 16.535156 7.390625 13.453125 4.617188 9.644531 4.617188 C 5.839844 4.617188 2.753906 7.390625 2.753906 10.816406 L 2.753906 18.019531 C 2.753906 21.355469 5.683594 24.074219 9.355469 24.210938 Z M 9.355469 24.210938 "/></g><path style=" stroke:none;fill-rule:nonzero;fill:rgb(100%,100%,100%);fill-opacity:1;" d="M 10.144531 18.199219 C 10.144531 18.449219 9.921875 18.648438 9.644531 18.648438 C 9.367188 18.648438 9.144531 18.449219 9.144531 18.199219 L 9.144531 15.15625 C 9.144531 14.910156 9.367188 14.707031 9.644531 14.707031 C 9.921875 14.707031 10.144531 14.910156 10.144531 15.15625 Z M 10.144531 18.199219 "/><g style="fill:rgb(100%,100%,100%);fill-opacity:1;"><g transform="translate(19.977103, 19.040215)"><path style="stroke:none;" d="M 2.203125 0 L 0.34375 0 L 1.515625 -8.40625 L 3.390625 -8.40625 Z M 2.203125 0 "/></g></g><g style="fill:rgb(100%,100%,100%);fill-opacity:1;"><g transform="translate(23.532057, 19.040215)"><path style="stroke:none;" d="M 7.515625 -6.890625 L 5 -6.890625 L 4.046875 0 L 2.171875 0 L 3.15625 -6.890625 L 0.65625 -6.890625 L 0.859375 -8.40625 L 7.71875 -8.40625 Z M 7.515625 -6.890625 "/></g></g><g style="fill:rgb(100%,100%,100%);fill-opacity:1;"><g transform="translate(30.763709, 19.040215)"><path style="stroke:none;" d="M 5.59375 -4.859375 L 7.375 -4.859375 L 6.6875 0 L 5.34375 0 L 5.296875 -1.03125 C 4.566406 -0.238281 3.722656 0.15625 2.765625 0.15625 C 1.898438 0.15625 1.285156 -0.191406 0.921875 -0.890625 C 0.566406 -1.597656 0.484375 -2.722656 0.671875 -4.265625 C 0.785156 -5.148438 0.953125 -5.875 1.171875 -6.4375 C 1.398438 -7.007812 1.695312 -7.445312 2.0625 -7.75 C 2.425781 -8.0625 2.832031 -8.273438 3.28125 -8.390625 C 3.726562 -8.503906 4.285156 -8.5625 4.953125 -8.5625 C 5.960938 -8.5625 6.816406 -8.457031 7.515625 -8.25 L 7.296875 -6.90625 C 6.378906 -6.945312 5.609375 -6.96875 4.984375 -6.96875 C 4.191406 -6.96875 3.632812 -6.78125 3.3125 -6.40625 C 3 -6.039062 2.765625 -5.28125 2.609375 -4.125 C 2.472656 -3.09375 2.46875 -2.390625 2.59375 -2.015625 C 2.726562 -1.640625 3.039062 -1.453125 3.53125 -1.453125 C 3.875 -1.453125 4.164062 -1.515625 4.40625 -1.640625 C 4.644531 -1.773438 4.925781 -1.988281 5.25 -2.28125 Z M 5.59375 -4.859375 "/></g></g><g style="fill:rgb(100%,100%,100%);fill-opacity:1;"><g transform="translate(38.591912, 19.040215)"><path style="stroke:none;" d="M 3.828125 -6.171875 C 4.941406 -6.171875 5.71875 -5.914062 6.15625 -5.40625 C 6.59375 -4.90625 6.734375 -4.078125 6.578125 -2.921875 C 6.421875 -1.796875 6.082031 -1 5.5625 -0.53125 C 5.050781 -0.0703125 4.253906 0.15625 3.171875 0.15625 C 2.066406 0.15625 1.285156 -0.09375 0.828125 -0.59375 C 0.378906 -1.09375 0.238281 -1.914062 0.40625 -3.0625 C 0.5625 -4.195312 0.894531 -5 1.40625 -5.46875 C 1.914062 -5.9375 2.722656 -6.171875 3.828125 -6.171875 Z M 3.828125 -4.8125 C 3.328125 -4.8125 2.96875 -4.6875 2.75 -4.4375 C 2.539062 -4.1875 2.382812 -3.679688 2.28125 -2.921875 C 2.175781 -2.222656 2.1875 -1.757812 2.3125 -1.53125 C 2.4375 -1.300781 2.734375 -1.1875 3.203125 -1.1875 C 3.691406 -1.1875 4.039062 -1.3125 4.25 -1.5625 C 4.457031 -1.820312 4.613281 -2.320312 4.71875 -3.0625 C 4.820312 -3.757812 4.8125 -4.222656 4.6875 -4.453125 C 4.5625 -4.691406 4.273438 -4.8125 3.828125 -4.8125 Z M 3.828125 -4.8125 "/></g></g><g style="fill:rgb(100%,100%,100%);fill-opacity:1;"><g transform="translate(45.726169, 19.040215)"><path style="stroke:none;" d=""/></g></g><g style="fill:rgb(100%,100%,100%);fill-opacity:1;"><g transform="translate(48.368036, 19.040215)"><path style="stroke:none;" d="M 3.9375 -3.1875 L 2.34375 -3.828125 C 1.726562 -4.085938 1.316406 -4.414062 1.109375 -4.8125 C 0.898438 -5.207031 0.832031 -5.707031 0.90625 -6.3125 C 1.019531 -7.195312 1.328125 -7.789062 1.828125 -8.09375 C 2.328125 -8.40625 3.101562 -8.5625 4.15625 -8.5625 C 5.207031 -8.5625 6.125 -8.445312 6.90625 -8.21875 L 6.71875 -6.96875 C 5.988281 -6.988281 5.117188 -7 4.109375 -7 C 3.617188 -7.007812 3.285156 -6.96875 3.109375 -6.875 C 2.929688 -6.789062 2.8125 -6.566406 2.75 -6.203125 C 2.707031 -5.921875 2.726562 -5.722656 2.8125 -5.609375 C 2.90625 -5.503906 3.109375 -5.390625 3.421875 -5.265625 L 4.921875 -4.6875 C 5.566406 -4.4375 5.988281 -4.117188 6.1875 -3.734375 C 6.394531 -3.359375 6.457031 -2.84375 6.375 -2.1875 C 6.257812 -1.257812 5.960938 -0.632812 5.484375 -0.3125 C 5.003906 0 4.195312 0.15625 3.0625 0.15625 C 2.125 0.15625 1.164062 0.046875 0.1875 -0.171875 L 0.375 -1.5 C 2.09375 -1.457031 2.96875 -1.4375 3 -1.4375 C 3.5625 -1.4375 3.941406 -1.488281 4.140625 -1.59375 C 4.347656 -1.707031 4.484375 -1.941406 4.546875 -2.296875 C 4.578125 -2.578125 4.550781 -2.769531 4.46875 -2.875 C 4.382812 -2.976562 4.207031 -3.082031 3.9375 -3.1875 Z M 3.9375 -3.1875 "/></g></g><g style="fill:rgb(100%,100%,100%);fill-opacity:1;"><g transform="translate(55.404897, 19.040215)"><path style="stroke:none;" d="M 3.21875 -8.515625 L 2.9375 -6.40625 C 2.863281 -5.894531 2.753906 -5.398438 2.609375 -4.921875 C 3.535156 -5.753906 4.390625 -6.171875 5.171875 -6.171875 C 5.722656 -6.171875 6.132812 -6.019531 6.40625 -5.71875 C 6.675781 -5.425781 6.769531 -5.007812 6.6875 -4.46875 L 6.0625 0 L 4.265625 0 L 4.828125 -3.984375 C 4.859375 -4.242188 4.847656 -4.421875 4.796875 -4.515625 C 4.742188 -4.609375 4.628906 -4.65625 4.453125 -4.65625 C 4.179688 -4.65625 3.898438 -4.578125 3.609375 -4.421875 C 3.328125 -4.273438 2.96875 -4.03125 2.53125 -3.6875 L 2.03125 0 L 0.234375 0 L 1.421875 -8.515625 Z M 3.21875 -8.515625 "/></g></g><g style="fill:rgb(100%,100%,100%);fill-opacity:1;"><g transform="translate(62.660897, 19.040215)"><path style="stroke:none;" d="M 3.828125 -6.171875 C 4.941406 -6.171875 5.71875 -5.914062 6.15625 -5.40625 C 6.59375 -4.90625 6.734375 -4.078125 6.578125 -2.921875 C 6.421875 -1.796875 6.082031 -1 5.5625 -0.53125 C 5.050781 -0.0703125 4.253906 0.15625 3.171875 0.15625 C 2.066406 0.15625 1.285156 -0.09375 0.828125 -0.59375 C 0.378906 -1.09375 0.238281 -1.914062 0.40625 -3.0625 C 0.5625 -4.195312 0.894531 -5 1.40625 -5.46875 C 1.914062 -5.9375 2.722656 -6.171875 3.828125 -6.171875 Z M 3.828125 -4.8125 C 3.328125 -4.8125 2.96875 -4.6875 2.75 -4.4375 C 2.539062 -4.1875 2.382812 -3.679688 2.28125 -2.921875 C 2.175781 -2.222656 2.1875 -1.757812 2.3125 -1.53125 C 2.4375 -1.300781 2.734375 -1.1875 3.203125 -1.1875 C 3.691406 -1.1875 4.039062 -1.3125 4.25 -1.5625 C 4.457031 -1.820312 4.613281 -2.320312 4.71875 -3.0625 C 4.820312 -3.757812 4.8125 -4.222656 4.6875 -4.453125 C 4.5625 -4.691406 4.273438 -4.8125 3.828125 -4.8125 Z M 3.828125 -4.8125 "/></g></g><g style="fill:rgb(100%,100%,100%);fill-opacity:1;"><g transform="translate(69.795156, 19.040215)"><path style="stroke:none;" d="M 2.5 -6 L 2.46875 -4.84375 C 2.820312 -5.207031 3.222656 -5.515625 3.671875 -5.765625 C 4.117188 -6.015625 4.554688 -6.140625 4.984375 -6.140625 C 5.691406 -6.140625 6.179688 -5.890625 6.453125 -5.390625 C 6.722656 -4.898438 6.773438 -4.066406 6.609375 -2.890625 C 6.535156 -2.367188 6.4375 -1.921875 6.3125 -1.546875 C 6.1875 -1.179688 6.039062 -0.890625 5.875 -0.671875 C 5.71875 -0.453125 5.519531 -0.28125 5.28125 -0.15625 C 5.050781 -0.03125 4.820312 0.0507812 4.59375 0.09375 C 4.363281 0.132812 4.085938 0.15625 3.765625 0.15625 C 3.179688 0.15625 2.585938 0.101562 1.984375 0 C 1.984375 0.382812 1.957031 0.757812 1.90625 1.125 L 1.703125 2.3125 L -0.09375 2.3125 L 1.078125 -6 Z M 2.203125 -1.09375 L 3.125 -1.09375 C 3.738281 -1.09375 4.140625 -1.195312 4.328125 -1.40625 C 4.523438 -1.613281 4.675781 -2.113281 4.78125 -2.90625 C 4.875 -3.664062 4.890625 -4.15625 4.828125 -4.375 C 4.773438 -4.59375 4.609375 -4.703125 4.328125 -4.703125 C 4.117188 -4.703125 3.851562 -4.609375 3.53125 -4.421875 C 3.207031 -4.242188 2.882812 -4.007812 2.5625 -3.71875 Z M 2.203125 -1.09375 "/></g></g></g></svg>